<?xml version="1.0" standalone="no"?><!DOCTYPE svg PUBLIC "-//W3C//DTD SVG 1.1//EN" "http://www.w3.org/Graphics/SVG/1.1/DTD/svg11.dtd"><svg t="1574771122640" class="icon" viewBox="0 0 1024 1024" version="1.1" xmlns="http://www.w3.org/2000/svg" p-id="5239" xmlns:xlink="http://www.w3.org/1999/xlink" width="16" height="16"><defs><style type="text/css"></style></defs><path d="M133.973333 42.666667C83.626667 42.666667 42.666667 83.626667 42.666667 133.973333L42.666667 213.333333 128 213.333333 128 128 213.333333 128 213.333333 42.666667 133.973333 42.666667M298.666667 42.666667 298.666667 128 426.666667 128 426.666667 42.666667 298.666667 42.666667M512 42.666667 512 128 597.333333 128 597.333333 213.333333 682.666667 213.333333 682.666667 133.973333C682.666667 83.626667 641.706667 42.666667 591.36 42.666667L512 42.666667M42.666667 298.666667 42.666667 426.666667 128 426.666667 128 298.666667 42.666667 298.666667M384 298.666667C336.64 298.666667 298.666667 336.64 298.666667 384 298.666667 483.413333 298.666667 682.666667 298.666667 682.666667 298.666667 682.666667 493.653333 682.666667 591.36 682.666667 641.706667 682.666667 682.666667 641.706667 682.666667 591.36 682.666667 493.653333 682.666667 298.666667 682.666667 298.666667 682.666667 298.666667 483.413333 298.666667 384 298.666667M768 298.666667 768 384 853.333333 384 853.333333 469.333333 938.666667 469.333333 938.666667 384C938.666667 336.64 900.693333 298.666667 853.333333 298.666667L768 298.666667M384 384 597.333333 384 597.333333 597.333333 384 597.333333 384 384M42.666667 512 42.666667 591.36C42.666667 641.706667 83.626667 682.666667 133.973333 682.666667L213.333333 682.666667 213.333333 597.333333 128 597.333333 128 512 42.666667 512M853.333333 554.666667 853.333333 682.666667 938.666667 682.666667 938.666667 554.666667 853.333333 554.666667M298.666667 768 298.666667 853.333333C298.666667 900.693333 336.64 938.666667 384 938.666667L469.333333 938.666667 469.333333 853.333333 384 853.333333 384 768 298.666667 768M853.333333 768 853.333333 853.333333 768 853.333333 768 938.666667 853.333333 938.666667C900.693333 938.666667 938.666667 900.693333 938.666667 853.333333L938.666667 768 853.333333 768M554.666667 853.333333 554.666667 938.666667 682.666667 938.666667 682.666667 853.333333 554.666667 853.333333Z" p-id="5240"></path></svg>