<?xml version="1.0" standalone="no"?><!DOCTYPE svg PUBLIC "-//W3C//DTD SVG 1.1//EN" "http://www.w3.org/Graphics/SVG/1.1/DTD/svg11.dtd"><svg t="1574771106891" class="icon" viewBox="0 0 1024 1024" version="1.1" xmlns="http://www.w3.org/2000/svg" p-id="4987" xmlns:xlink="http://www.w3.org/1999/xlink" width="16" height="16"><defs><style type="text/css"></style></defs><path d="M640 640v170.666667a85.333333 85.333333 0 0 1-85.333333 85.333333H213.333333a85.333333 85.333333 0 0 1-85.333333-85.333333v-341.333334a85.333333 85.333333 0 0 1 85.333333-85.333333h170.666667V213.333333a85.333333 85.333333 0 0 1 85.333333-85.333333h341.333334a85.333333 85.333333 0 0 1 85.333333 85.333333v341.333334a85.333333 85.333333 0 0 1-85.333333 85.333333h-170.666667z m-85.333333-85.333333h256V213.333333h-341.333334v256H213.333333v341.333334h341.333334v-256z" fill="#000000" p-id="4988"></path></svg>