<?xml version="1.0" standalone="no"?><!DOCTYPE svg PUBLIC "-//W3C//DTD SVG 1.1//EN" "http://www.w3.org/Graphics/SVG/1.1/DTD/svg11.dtd"><svg t="1575261478017" class="icon" viewBox="0 0 1024 1024" version="1.1" xmlns="http://www.w3.org/2000/svg" p-id="5771" xmlns:xlink="http://www.w3.org/1999/xlink" width="16" height="16"><defs><style type="text/css"></style></defs><path d="M469.333333 893.653333V853.333333a42.666667 42.666667 0 1 1 85.333334 0v40.32a382.592 382.592 0 0 0 235.093333-116.48A382.293333 382.293333 0 0 0 893.653333 554.666667H853.333333a42.666667 42.666667 0 1 1 0-85.333334h40.32C873.984 291.349333 732.650667 150.016 554.666667 130.346667V170.666667a42.666667 42.666667 0 1 1-85.333334 0V130.346667C291.349333 150.016 150.016 291.349333 130.346667 469.333333H170.666667a42.666667 42.666667 0 1 1 0 85.333334H130.346667c19.669333 177.984 161.002667 319.317333 338.986666 338.986666zM512 981.333333C252.8 981.333333 42.666667 771.2 42.666667 512S252.8 42.666667 512 42.666667s469.333333 210.133333 469.333333 469.333333a467.797333 467.797333 0 0 1-129.877333 324.096A468.010667 468.010667 0 0 1 512 981.333333z m120.682667-348.650666a170.666667 170.666667 0 1 1-146.56-289.386667l195.648-53.482667c31.872-8.704 61.12 20.544 52.416 52.416l-53.482667 195.626667a170.069333 170.069333 0 0 1-48.021333 94.826667z m-0.533334-240.853334l-126.08 34.474667a42.666667 42.666667 0 0 1-5.546666 1.130667 85.333333 85.333333 0 1 0 96.042666 96.042666 42.666667 42.666667 0 0 1 1.130667-5.546666l34.453333-126.08z" fill="#000000" p-id="5772"></path></svg>