<?xml version="1.0" standalone="no"?><!DOCTYPE svg PUBLIC "-//W3C//DTD SVG 1.1//EN" "http://www.w3.org/Graphics/SVG/1.1/DTD/svg11.dtd"><svg t="1574831199553" class="icon" viewBox="0 0 1024 1024" version="1.1" xmlns="http://www.w3.org/2000/svg" p-id="6604" xmlns:xlink="http://www.w3.org/1999/xlink" width="16" height="16"><defs><style type="text/css"></style></defs><path d="M128 213.333333H42.666667v682.666667c0 47.146667 38.186667 85.333333 85.333333 85.333333h682.666667v-85.333333H128V213.333333z m469.333333 426.666667h85.333334V213.333333h-170.666667v85.333334h85.333333v341.333333zM896 42.666667H298.666667c-47.146667 0-85.333333 38.186667-85.333334 85.333333v597.333333c0 47.146667 38.186667 85.333333 85.333334 85.333334h597.333333c47.146667 0 85.333333-38.186667 85.333333-85.333334V128c0-47.146667-38.186667-85.333333-85.333333-85.333333z m0 682.666666H298.666667V128h597.333333v597.333333z" p-id="6605"></path></svg>