<?xml version="1.0" standalone="no"?><!DOCTYPE svg PUBLIC "-//W3C//DTD SVG 1.1//EN" "http://www.w3.org/Graphics/SVG/1.1/DTD/svg11.dtd"><svg t="1575520778026" class="icon" viewBox="0 0 1024 1024" version="1.1" xmlns="http://www.w3.org/2000/svg" p-id="16893" xmlns:xlink="http://www.w3.org/1999/xlink" width="16" height="16"><defs><style type="text/css"></style></defs><path d="M295.563636 1024c-25.6 0-48.872727-9.309091-67.490909-27.927273l-200.145454-200.145454C9.309091 777.309091 0 754.036364 0 728.436364c0-25.6 9.309091-48.872727 27.927273-67.490909L663.272727 27.927273c34.909091-34.909091 97.745455-34.909091 132.654546 0l200.145454 200.145454c18.618182 18.618182 27.927273 41.890909 27.927273 67.490909s-9.309091 48.872727-27.927273 67.490909L360.727273 996.072727c-16.290909 18.618182-39.563636 27.927273-65.163637 27.927273zM728.436364 46.545455c-11.636364 0-25.6 4.654545-32.581819 13.963636L60.509091 695.854545c-9.309091 9.309091-13.963636 20.945455-13.963636 32.581819s4.654545 25.6 13.963636 32.581818l200.145454 200.145454c18.618182 18.618182 48.872727 18.618182 67.49091 0L963.490909 325.818182c9.309091-9.309091 13.963636-20.945455 13.963636-32.581818 0-11.636364-4.654545-25.6-13.963636-32.581819l-200.145454-200.145454c-9.309091-9.309091-20.945455-13.963636-34.909091-13.963636z" p-id="16894"></path><path d="M179.2 712.145455c-9.309091 9.309091-23.272727 9.309091-32.581818 0l-67.490909-67.49091c-9.309091-9.309091-9.309091-23.272727 0-32.581818 9.309091-9.309091 23.272727-9.309091 32.581818 0l67.490909 67.490909c6.981818 9.309091 6.981818 23.272727 0 32.581819zM351.418182 705.163636c-9.309091 9.309091-23.272727 9.309091-32.581818 0l-151.272728-151.272727c-9.309091-9.309091-9.309091-23.272727 0-32.581818 9.309091-9.309091 23.272727-9.309091 32.581819 0l151.272727 151.272727c9.309091 9.309091 9.309091 25.6 0 32.581818zM356.072727 532.945455c-9.309091 9.309091-23.272727 9.309091-32.581818 0L256 467.781818c-9.309091-9.309091-9.309091-23.272727 0-32.581818 9.309091-9.309091 23.272727-9.309091 32.581818 0l67.490909 67.490909c9.309091 6.981818 9.309091 20.945455 0 30.254546zM528.290909 528.290909c-9.309091 9.309091-23.272727 9.309091-32.581818 0l-151.272727-151.272727c-9.309091-9.309091-9.309091-23.272727 0-32.581818 9.309091-9.309091 23.272727-9.309091 32.581818 0l151.272727 151.272727c9.309091 9.309091 9.309091 23.272727 0 32.581818zM535.272727 356.072727c-9.309091 9.309091-23.272727 9.309091-32.581818 0l-67.490909-67.490909c-9.309091-9.309091-9.309091-23.272727 0-32.581818 9.309091-9.309091 23.272727-9.309091 32.581818 0l67.490909 67.490909c9.309091 6.981818 9.309091 23.272727 0 32.581818zM712.145455 176.872727c-9.309091 9.309091-23.272727 9.309091-32.581819 0l-67.490909-67.490909c-9.309091-9.309091-9.309091-23.272727 0-32.581818 9.309091-9.309091 23.272727-9.309091 32.581818 0l67.49091 67.490909c9.309091 9.309091 9.309091 23.272727 0 32.581818zM707.490909 349.090909c-9.309091 9.309091-23.272727 9.309091-32.581818 0l-151.272727-151.272727c-9.309091-9.309091-9.309091-23.272727 0-32.581818 9.309091-9.309091 23.272727-9.309091 32.581818 0l151.272727 151.272727c9.309091 9.309091 9.309091 23.272727 0 32.581818z" p-id="16895"></path></svg>