<?xml version="1.0" standalone="no"?><!DOCTYPE svg PUBLIC "-//W3C//DTD SVG 1.1//EN" "http://www.w3.org/Graphics/SVG/1.1/DTD/svg11.dtd"><svg t="1576670070100" class="icon" viewBox="0 0 1024 1024" version="1.1" xmlns="http://www.w3.org/2000/svg" p-id="1908" xmlns:xlink="http://www.w3.org/1999/xlink" width="16" height="16"><defs><style type="text/css"></style></defs><path d="M862.553 195.07H164.384c-52.363 0-95.205-42.842-95.205-95.205 0-52.362 42.842-95.205 95.205-95.205h698.167c52.363 0 95.204 42.842 95.204 95.205 0.003 52.363-42.84 95.205-95.202 95.205zM418.264 924.974V353.745c0-52.364 42.842-95.205 95.205-95.205 52.361 0 95.204 42.841 95.204 95.205v571.229c0 52.362-42.843 95.204-95.204 95.204-52.362 0-95.205-42.842-95.205-95.204z" p-id="1909"></path><path d="M80.883 654.881l367.2-367.2c37.026-37.027 97.613-37.027 134.639 0 37.027 37.026 37.027 97.613 0 134.64l-367.199 367.2c-37.027 37.024-97.614 37.024-134.64 0-37.026-37.028-37.026-97.616 0-134.64z" p-id="1910"></path><path d="M581.916 287.681l367.2 367.2c37.027 37.024 37.027 97.612 0 134.641-37.025 37.024-97.613 37.024-134.639 0l-367.2-367.202c-37.026-37.026-37.026-97.614 0-134.64 37.027-37.026 97.615-37.026 134.639 0.001z" p-id="1911"></path></svg>